# xmcd
#
# Track frame offsets:
# 150
# 23176
# 28559
# 39815
# 44000
# 45247
# 49501
# 51854
# 54876
# 56604
# 57499
# 59520
# 62608
# 65352
# 68148
# 71008
# 73860
# 76744
# 79508
# 94247
# 112044
# 128395
# 138985
# 145817
# 152428
# 168840
# 177530
# 181143
# 184425
# 194995
# 196954
# 200422
# 203731
# 206533
# 211279
# 214708
# 217979
# 221394
# 224651
# 226844
# 240598
# 243310
# 245830
#
# Disc length: 3322 seconds
#
#
# Revision: 0
# Processed by: cddbd v1.5.2PL0 Copyright (c) Steve Scherf et al.
# Submitted via: FreeRIP 2.951 
#
DISCID=7f0cf82b
DTITLE=David Barrett - David Barrett's Harmonica Masterclass Basic Blues Chromatic
DYEAR=2003
DGENRE=Blues
TTITLE0=A Word from the Author
TTITLE1=Similarities Between the Chromatic and the Diatonic Harmonica
TTITLE2=3rd Position Playing Example on the Diatonic Harmonica
TTITLE3=Tongue Blocking and Tongue Slap
TTITLE4=Tongue Block Articulation
TTITLE5=Pulls
TTITLE6=Pull-Slaps
TTITLE7=Octaves
TTITLE8=Flutter Tongue
TTITLE9=Glissando
TTITLE10=Two-Hole Shake
TTITLE11=3rd Position Root Note Example
TTITLE12=AAA Verse Form
TTITLE13=AAB Verse Form
TTITLE14=AAA or AAB Verse Form with Tails
TTITLE15=AA1A2 Verse Form
TTITLE16=A B/A C Verse Form
TTITLE17=ABC Verse Form
TTITLE18=D Dorian Scale Excercises Ex. 2.1 - 2.5
TTITLE19=Single Note Soloing Ex. 2.6 - 2.13
TTITLE20=Single Note Soloing Ex. 2.14 - 2.21
TTITLE21=Single Note Soloing Ex. 2.22 - 2.26
TTITLE22=Single Note Soloing Song
TTITLE23=Single Note Soloing Song Background
TTITLE24=Soloing with Pulls Ex. 2.28 - 2.35
TTITLE25=Soloing with Pulls Ex. 2.36 - 2.39
TTITLE26=Fake Octave Song
TTITLE27=Fake Octave Song Background
TTITLE28=Fake Octave Soloing
TTITLE29=Octave Soloing
TTITLE30=Playing in a Major or Minor Key Context Ex. 2.46A
TTITLE31=Ex. 2.46A Background
TTITLE32=Playing in a Major or Minor Key Context Ex. 2.46B
TTITLE33=Ex. 2.46B Background
TTITLE34=Octave Soloing Ex. 2.47
TTITLE35=Ex. 2.47 Background
TTITLE36=Octave Soloing Ex. 2.48
TTITLE37=Ex. 2.48 Background
TTITLE38=Chromatic Scale and D Blues Scale
TTITLE39=D Blues Scale Exercises Ex. 2.51 - 2.54
TTITLE40=Blues Scale Soloing Ex. 2.55
TTITLE41=Ex. 2.55 Background
TTITLE42=Closing Words
EXTD=
EXTT0=
EXTT1=
EXTT2=
EXTT3=
EXTT4=
EXTT5=
EXTT6=
EXTT7=
EXTT8=
EXTT9=
EXTT10=
EXTT11=
EXTT12=
EXTT13=
EXTT14=
EXTT15=
EXTT16=
EXTT17=
EXTT18=
EXTT19=
EXTT20=
EXTT21=
EXTT22=
EXTT23=
EXTT24=
EXTT25=
EXTT26=
EXTT27=
EXTT28=
EXTT29=
EXTT30=
EXTT31=
EXTT32=
EXTT33=
EXTT34=
EXTT35=
EXTT36=
EXTT37=
EXTT38=
EXTT39=
EXTT40=
EXTT41=
EXTT42=
PLAYORDER=
